<?xml version="1.0" encoding="UTF-8" standalone="no"?>
<svg
   width="1883"
   height="325"
   viewBox="0 0 1883 325"
   fill="none"
   version="1.1"
   id="svg4"
   sodipodi:docname="logo.svg"
   inkscape:export-filename="logo-light.svg"
   inkscape:export-xdpi="96"
   inkscape:export-ydpi="96"
   xmlns:inkscape="http://www.inkscape.org/namespaces/inkscape"
   xmlns:sodipodi="http://sodipodi.sourceforge.net/DTD/sodipodi-0.dtd"
   xmlns="http://www.w3.org/2000/svg"
   xmlns:svg="http://www.w3.org/2000/svg">
  <sodipodi:namedview
     id="namedview4"
     pagecolor="#505050"
     bordercolor="#eeeeee"
     borderopacity="1"
     inkscape:showpageshadow="0"
     inkscape:pageopacity="0"
     inkscape:pagecheckerboard="0"
     inkscape:deskcolor="#505050">
    <inkscape:page
       x="0"
       y="0"
       width="1883"
       height="325"
       id="page2"
       margin="0"
       bleed="0" />
  </sodipodi:namedview>
  <g
     clip-path="url(#clip0_240_17)"
     id="g4"
     style="fill:#000000">
    <path
       d="m 1858.32,285.84 c -6.32,-7.22 -12.65,-18.51 -18.97,-33.87 L 1733.68,2.26001 h -55.09 L 1693.5,38.39 1606.34,251.08 c -6.92,16.26 -13.7,27.85 -20.32,34.77 -0.83,0.87 -1.86,1.73 -3.03,2.59 -13.75,10.06 -32.47,9.58 -46.28,-0.4 -1.2,-0.86 -2.37,-1.76 -3.52,-2.69 -7.83,-6.32 -16.71,-16.11 -26.64,-29.35 l -71.8,-93.02 c 21.97,-3.91 39.28,-12.95 51.93,-27.09 12.94,-14.15 19.42,-31.31 19.42,-51.48 0,-24.99 -9.64,-44.55 -28.91,-58.7 -18.96,-14.15 -44.55,-20.91999 -76.76,-20.31999 l -69.09,1.35 h -72.7 V 27.51 c 14.75,0.9 24.68,3.61 29.8,8.13 5.42,4.21 8.13,12.34 8.13,24.38 v 205.01 c 0,11.74 -2.71,19.87 -8.13,24.39 -5.12,4.52 -15.05,7.22 -29.8,8.13 v 20.77 h 138.18 v -20.77 c -13.25,-0.6 -23.18,-1.96 -29.81,-4.06 -6.62,-2.11 -11.14,-5.27 -13.54,-9.48 -2.41,-4.21 -3.62,-10.54 -3.62,-18.97 v -93.93 h 32.52 l 102.5,147.21 h 74.96 v 0.05 h 107.02 V 298.5 c -15.95,-0.9 -26.94,-2.71 -32.96,-5.42 -5.72,-2.71 -8.58,-7.23 -8.58,-13.55 0,-4.52 1.8,-11.74 5.42,-21.68 l 18.06,-45.61 h 116.5 l 16.71,41.09 c 5.12,13.25 7.68,22.28 7.68,27.09 0,6.02 -2.71,10.54 -8.13,13.55 -5.42,2.71 -15.2,4.22 -29.35,4.52 v 19.87 h 130.05 v -19.42 c -9.33,-1.81 -17.31,-6.17 -23.93,-13.1 z M 1385.98,148.51 h -36.13 V 29.3 h 37.93 c 20.17,0 35.53,4.97 46.06,14.9 10.84,9.93 16.26,24.08 16.26,42.45 0,19.57 -5.57,34.77 -16.71,45.61 -11.14,10.84 -26.94,16.26 -47.41,16.26 z m 273.2,38.89 47.41,-118.31 48.32,118.31 z"
       fill="white"
       id="path1"
       style="fill:#000000" />
    <path
       d="M 1186.21,15.8 C 1166.34,5.26 1143.62,0 1118.03,0 c -37.03,0 -69.85,9.78 -98.45,29.35 -28.29,19.57 -50.12,44.71 -65.47,75.41 -15.35,30.41 -23.03,61.41 -23.03,93.02 0,26.19 5.72,48.92 17.16,68.19 11.44,18.97 27.09,33.57 46.96,43.8 20.17,9.93 42.75,14.9 67.73,14.9 36.73,0 69.25,-9.63 97.54,-28.9 28.6,-19.57 50.73,-44.4 66.38,-74.51 15.66,-30.41 23.49,-61.11 23.49,-92.12 0,-26.19 -5.72,-48.92 -17.16,-68.19 -11.14,-19.57 -26.8,-34.62 -46.97,-45.16 z m -5.87,186.95 c -12.04,28.6 -28.6,52.08 -49.67,70.44 -20.77,18.36 -43.65,27.55 -68.64,27.55 -24.99,0 -45.61,-8.43 -59.15,-25.29 -13.25,-16.86 -19.87,-39.89 -19.87,-69.09 0,-27.7 5.87,-55.69 17.61,-83.99 12.04,-28.6 28.45,-52.08 49.22,-70.44 21.07,-18.66 44.1,-28 69.09,-28 24.99,0 45.61,8.58 59.15,25.74 13.55,16.86 20.33,39.14 20.33,66.83 0,27.69 -6.03,57.35 -18.07,86.25 z"
       fill="white"
       id="path2"
       style="fill:#000000" />
    <path
       d="M 876.8,255.99 805,162.97 c 21.98,-3.91 39.29,-12.95 51.93,-27.09 12.95,-14.15 19.42,-31.31 19.42,-51.48 0,-24.99 -9.63,-44.55 -28.9,-58.7 C 828.48,11.55 802.89,4.77999 770.68,5.37999 l -69.09,1.35 h -72.7 v 0.04 H 521.17 V 27.54 c 12.95,0.6 22.73,1.96 29.35,4.06 6.62,2.11 11.14,5.42 13.55,9.93 2.71,4.52 4.06,10.84 4.06,18.97 v 130.95 c 0,65.03 -28.3,97.54 -84.89,97.54 -28.3,0 -49.82,-7.98 -64.57,-23.93 C 404.22,248.8 397,225.32 397,194.61 V 60.5 c 0,-8.13 1.2,-14.45 3.61,-18.97 2.41,-4.52 6.92,-7.83 13.55,-9.93 6.93,-2.41 16.86,-3.76 29.8,-4.06 V 6.76999 H 305.33 V 27.54 c 14.75,0.6 24.69,3.31 29.8,8.13 5.42,4.82 8.13,13.1 8.13,24.84 v 132.76 c 0,42.75 10.99,75.41 32.97,97.99 21.98,22.28 53.28,33.42 93.93,33.42 40.65,0 72.1,-11.44 92.57,-34.32 20.77,-22.88 31.16,-56.6 31.16,-101.15 V 60.5 c 0,-11.74 2.71,-20.02 8.13,-24.84 5.16,-4.59 14.84,-7.26 29.01,-8.02 13.58,1.03 22.81,3.68 27.68,7.98 5.42,4.21 8.13,12.34 8.13,24.38 v 205.01 c 0,11.74 -2.71,19.87 -8.13,24.39 -5.12,4.52 -15.05,7.22 -29.8,8.13 v 20.77 h 138.18 v -20.77 c -13.25,-0.6 -23.18,-1.96 -29.8,-4.06 -6.62,-2.11 -11.14,-5.27 -13.55,-9.48 -2.41,-4.21 -3.61,-10.54 -3.61,-18.97 v -93.93 h 32.51 L 855.15,318.3 h 74.96 v -18.51 c -9.93,-3.31 -18.82,-8.13 -26.64,-14.45 -7.83,-6.32 -16.71,-16.11 -26.64,-29.35 z M 756.23,148.51 H 720.11 V 29.3 h 37.93 c 20.17,0 35.52,4.97 46.06,14.9 10.84,9.93 16.26,24.08 16.26,42.45 0,19.57 -5.57,34.77 -16.71,45.61 -11.14,10.84 -26.94,16.26 -47.42,16.26 z"
       fill="white"
       id="path3"
       style="fill:#000000" />
    <path
       d="m 298.49,285.84 c -6.32,-7.22 -12.64,-18.51 -18.97,-33.87 L 173.85,2.26001 H 118.76 L 133.66,38.39 46.51,251.07 c -6.92,16.26 -13.7,27.85 -20.32,34.77 -6.62,6.92 -15.35,11.14 -26.19,12.64 v 19.87 h 107.02 v -19.87 c -15.96,-0.9 -26.94,-2.71 -32.96,-5.42 -5.72,-2.71 -8.58,-7.23 -8.58,-13.55 0,-4.52 1.81,-11.74 5.42,-21.68 l 18.06,-45.61 h 116.51 l 16.71,41.09 c 5.12,13.25 7.68,22.28 7.68,27.09 0,6.02 -2.71,10.54 -8.13,13.55 -5.42,2.71 -15.2,4.22 -29.35,4.52 v 19.87 h 130.05 v -19.42 c -9.33,-1.81 -17.31,-6.17 -23.93,-13.1 z M 99.34,187.4 146.76,69.09 195.08,187.4 H 99.35 Z"
       fill="white"
       id="path4"
       style="fill:#000000" />
  </g>
  <defs
     id="defs4">
    <clipPath
       id="clip0_240_17">
      <rect
         width="1882.25"
         height="324.67999"
         fill="#ffffff"
         id="rect4"
         x="0"
         y="0" />
    </clipPath>
  </defs>
</svg>
